<svg width="40" height="40" viewBox="0 0 40 40" fill="none" xmlns="http://www.w3.org/2000/svg">
<path d="M9.78077 8.79001C4.25258 8.79001 0.0854492 12.8873 0.0854492 18.3211C0.0854492 23.7548 4.25258 27.8521 9.78077 27.8521C15.3083 27.8521 19.4761 23.7548 19.4761 18.3211C19.4761 12.8873 15.3063 8.79001 9.78077 8.79001ZM9.78077 23.5091C6.87033 23.5091 4.67477 21.2797 4.67477 18.3211C4.67477 15.3645 6.87033 13.133 9.78077 13.133C12.6912 13.133 14.8868 15.3625 14.8868 18.3211C14.8848 21.2777 12.6912 23.5091 9.78077 23.5091Z" fill="#512E7A"/>
<path d="M30.2194 8.79001C24.6912 8.79001 20.5234 12.8873 20.5234 18.3211C20.5234 23.7548 24.6912 27.8521 30.2194 27.8521C35.7469 27.8521 39.9147 23.7548 39.9147 18.3211C39.9147 12.8873 35.7469 8.79001 30.2194 8.79001ZM30.2194 23.5091C27.309 23.5091 25.1128 21.2797 25.1128 18.3211C25.1128 15.3645 27.309 13.133 30.2194 13.133C33.1292 13.133 35.3254 15.3625 35.3254 18.3211C35.3254 21.2777 33.1292 23.5091 30.2194 23.5091Z" fill="#512E7A"/>
<path d="M31.6404 31.4721L29.7812 29.6802C29.5651 29.4725 29.2863 29.3566 28.9969 29.3566C28.9513 29.3566 28.9044 29.3605 28.8588 29.3665C28.5139 29.4105 28.2054 29.6183 28.0111 29.9339C26.2906 32.7267 23.3128 34.3948 20.0422 34.3948H19.9887C16.6984 34.3768 13.7185 32.6767 12.0159 29.848C11.8236 29.5304 11.519 29.3206 11.1741 29.2727C11.1246 29.2667 11.0757 29.2627 11.0241 29.2627C10.7387 29.2627 10.4639 29.3745 10.2478 29.5783L8.36873 31.3503C7.91152 31.7818 7.81439 32.5549 8.14937 33.1103C10.1745 36.4764 13.3109 38.7997 16.9831 39.6507C17.9557 39.8765 18.9554 39.9923 19.957 39.9983H20.0323C24.808 39.9983 29.2149 37.4792 31.8221 33.2601L31.838 33.2361C32.1809 32.6827 32.0917 31.9077 31.6404 31.4721Z" fill="#C4B6F4"/>
</svg>

